<svg version="1.1" id="Layer_1" xmlns="http://www.w3.org/2000/svg" xmlns:xlink="http://www.w3.org/1999/xlink" x="0px" y="0px"
	 width="100%" viewBox="0 0 129 159" enable-background="new 0 0 129 159" xml:space="preserve">
<path fill="#CBCDD0" opacity="1.000000" stroke="none" 
	d="
M108.000000,160.000000 
	C72.445946,160.000000 36.891899,160.000000 1.000000,160.000000 
	C1.000000,149.648224 1.000000,139.292770 1.371547,128.569504 
	C2.161024,129.526596 2.532465,130.868408 3.006413,132.172958 
	C4.041508,135.022110 5.128706,137.852310 6.194618,140.690262 
	C6.797491,140.537048 7.400364,140.383835 8.003237,140.230637 
	C8.003237,135.176483 7.866483,130.116516 8.081541,125.071533 
	C8.151553,123.429123 8.682975,121.331245 9.797641,120.301300 
	C12.664999,117.651878 17.599430,117.857948 19.456223,113.532219 
	C19.577293,113.250168 21.027924,113.282639 21.712717,113.548462 
	C23.517565,114.249077 25.241190,115.158928 26.841705,116.285828 
	C25.574583,117.297119 24.543772,118.214233 23.338640,118.686806 
	C12.222358,123.045845 7.360921,130.706421 9.620255,142.839432 
	C10.401268,147.033600 9.744534,151.495514 9.744534,156.994141 
	C12.865803,155.155197 14.674699,154.091003 16.482130,153.024323 
	C25.156956,147.904785 33.831387,142.784546 42.814789,137.952515 
	C46.549286,139.545990 49.974949,140.851486 53.351177,142.138153 
	C55.398426,141.101486 57.645355,139.274139 60.118095,138.886200 
	C63.207634,138.401489 66.491051,139.014175 69.676201,139.309937 
	C74.364853,139.745346 79.410461,139.403534 83.614143,141.101105 
	C87.536537,142.685089 93.344437,143.746078 97.777740,141.194107 
	C101.399826,143.247284 104.705368,145.116699 108.194565,147.153503 
	C108.673149,147.506851 108.992531,147.571014 109.483673,147.759705 
	C110.105873,148.598038 110.580780,149.190079 110.868835,150.080368 
	C107.736710,153.013931 106.415970,156.102112 108.000000,160.000000 
z"/>
<path fill="#DADADA" opacity="1.000000" stroke="none" 
	d="
M130.000000,100.000000 
	C130.000000,110.687561 130.000000,121.375122 129.627335,132.533081 
	C128.509338,133.007019 127.764000,133.010544 126.846970,132.785889 
	C126.149216,132.373413 125.623154,132.189117 125.006958,131.672882 
	C124.977753,130.890457 125.038696,130.439987 125.427338,129.917969 
	C126.168388,128.893021 126.581757,127.939644 126.994370,126.584984 
	C127.745956,121.285599 123.898491,119.830902 120.623940,118.627769 
	C119.390701,118.174652 117.289581,120.083633 115.234818,120.794823 
	C113.948563,120.401794 113.011597,120.129738 112.038902,119.679146 
	C112.003174,119.500610 111.931450,119.143616 111.895432,118.782013 
	C110.843933,117.984642 109.828461,117.548866 108.519089,117.059387 
	C107.834000,116.975182 107.442818,116.944687 107.017441,116.733124 
	C106.983246,116.552048 106.907379,116.191391 106.878777,115.827896 
	C105.848595,115.007439 104.847015,114.550476 103.548759,114.033585 
	C102.854141,113.947983 102.456192,113.922295 102.025940,113.715240 
	C101.993645,113.533875 101.916016,113.173698 101.877563,112.799110 
	C100.771873,112.020859 99.704636,111.617203 98.367828,111.161842 
	C97.743256,111.032562 97.388245,110.954971 96.894531,110.613556 
	C96.215202,110.149719 95.674561,109.949707 95.106201,109.556534 
	C95.078484,109.363373 95.072159,108.973137 95.305878,108.749786 
	C94.777184,106.525299 94.398079,104.212669 93.115433,102.634308 
	C92.282715,101.609619 90.118889,101.325943 88.578850,101.388161 
	C87.981285,101.412300 87.459106,103.302681 86.476654,104.259384 
	C85.271118,103.796570 84.491516,103.417274 83.713577,103.068581 
	C83.715233,103.099182 83.785080,103.129272 83.581284,102.830566 
	C83.260727,102.320961 83.143959,102.110054 83.016563,101.538177 
	C81.397614,97.233894 80.030151,96.686485 77.545197,99.081299 
	C76.303391,98.980751 75.473724,98.955101 74.384338,98.780258 
	C73.416718,99.423279 72.708817,100.215500 71.671478,100.969315 
	C69.892967,100.957008 68.443893,100.983109 66.705299,100.856735 
	C65.515785,100.248055 64.615791,99.791840 63.715790,99.335625 
	C63.378860,99.615341 63.041927,99.895058 62.704998,100.174782 
	C63.472847,101.448425 64.240700,102.722076 65.006287,104.394775 
	C65.156403,107.837189 64.647392,110.451065 60.958405,110.537804 
	C60.958382,102.719231 60.969265,95.369873 61.244648,87.746277 
	C61.324856,85.301804 61.140568,83.131584 60.936646,80.566452 
	C60.922947,79.117348 60.928875,78.063164 61.336021,77.007782 
	C65.108803,77.725197 68.366531,78.367691 69.942879,73.937164 
	C70.155014,73.340927 71.939461,73.304100 72.998550,73.447983 
	C72.337708,81.863792 73.904533,87.265526 83.756500,87.700195 
	C83.861786,87.658211 84.014397,87.825851 84.052948,88.209091 
	C85.230232,90.775604 97.610252,98.116463 99.719322,97.672913 
	C100.222694,97.567039 100.521988,96.490776 100.935570,95.901253 
	C100.955994,95.941673 100.870384,95.971222 101.160919,95.742668 
	C101.319008,93.679741 101.186562,91.845360 100.953087,89.640244 
	C100.914627,88.510323 100.977203,87.751129 101.305290,86.705688 
	C101.726463,84.276016 101.882126,82.132599 102.404747,80.000427 
	C107.059082,83.218239 111.347649,86.423225 115.627235,89.640144 
	C115.738495,89.723778 115.774414,89.933098 115.807419,90.091721 
	C117.423141,97.858482 123.838844,98.746704 130.000000,100.000000 
M68.708870,87.439735 
	C69.063469,87.083199 69.418060,86.726654 69.772659,86.370117 
	C69.478645,86.101028 69.184639,85.831932 68.890625,85.562843 
	C68.698746,86.054649 68.506874,86.546455 68.708870,87.439735 
z"/>
<path fill="#D6D7D7" opacity="1.000000" stroke="none" 
	d="
M26.997158,115.985458 
	C25.241190,115.158928 23.517565,114.249077 21.712717,113.548462 
	C21.027924,113.282639 19.577293,113.250168 19.456223,113.532219 
	C17.599430,117.857948 12.664999,117.651878 9.797641,120.301300 
	C8.682975,121.331245 8.151553,123.429123 8.081541,125.071533 
	C7.866483,130.116516 8.003237,135.176483 8.003237,140.230637 
	C7.400364,140.383835 6.797491,140.537048 6.194618,140.690262 
	C5.128706,137.852310 4.041508,135.022110 3.006413,132.172958 
	C2.532465,130.868408 2.161024,129.526596 1.371547,128.100845 
	C1.000000,114.645775 1.000000,101.291542 1.396404,87.467331 
	C5.520824,86.755882 8.788321,84.867867 13.123926,86.391449 
	C16.219015,87.479088 20.593100,84.944572 24.387152,83.989372 
	C24.661795,83.920219 24.988585,83.588921 25.075121,83.312004 
	C26.456867,78.890419 29.658560,79.017761 33.340202,80.467346 
	C33.401958,88.578323 33.343510,96.234062 32.963814,104.160202 
	C32.427250,107.268890 32.211933,110.107193 31.919399,113.077896 
	C31.842182,113.210304 31.535864,113.198158 31.174015,113.170532 
	C30.203070,113.741508 29.593969,114.340103 28.824501,115.190536 
	C28.108473,115.623390 27.552816,115.804428 26.997158,115.985458 
z"/>
<path fill="#E0E1E5" opacity="1.000000" stroke="none" 
	d="
M1.000000,24.000000 
	C1.000000,16.389683 1.000000,8.779366 1.000000,1.000000 
	C13.020459,1.000000 25.041571,1.000000 37.531391,1.421033 
	C37.704365,4.741606 38.219418,6.505252 41.692574,7.608459 
	C46.813023,9.234905 52.858559,9.617825 55.945999,15.332712 
	C55.544876,16.045221 55.269657,16.514969 54.713585,17.187782 
	C50.074791,19.986809 45.716858,22.582766 41.001038,24.999237 
	C34.465904,20.276955 28.706913,24.136612 24.156996,27.102980 
	C19.898928,29.879074 16.572334,28.757864 13.809716,26.892477 
	C9.687549,24.109097 5.880605,22.340899 1.000000,24.000000 
z"/>
<path fill="#E4E5E8" opacity="1.000000" stroke="none" 
	d="
M73.000000,1.000000 
	C78.688042,1.000000 84.376083,1.000000 90.577209,1.348292 
	C92.670525,4.774619 95.437119,7.826360 95.506081,10.937887 
	C95.578873,14.222274 95.943161,14.894705 99.019501,16.324715 
	C103.180939,18.259127 106.405701,22.199738 110.052277,25.255817 
	C111.191986,26.210970 112.271057,27.383511 113.594803,27.946424 
	C117.325539,29.532888 122.555382,29.365461 121.600800,35.843716 
	C121.522362,36.376034 123.430519,37.590488 124.552452,37.820492 
	C126.306839,38.180157 128.178192,37.969215 130.000000,38.000000 
	C130.000000,45.020947 130.000000,52.041897 129.653900,59.486820 
	C123.490746,56.640358 117.784515,53.144810 111.806328,50.201672 
	C109.123642,48.880955 107.083153,47.957024 106.711296,44.472664 
	C106.540199,42.869476 104.304070,41.486679 103.002594,39.574429 
	C102.661995,36.753948 102.323128,34.362991 101.804207,31.745138 
	C101.089302,31.343058 100.554459,31.167871 99.787514,30.903399 
	C99.257828,30.628613 99.067101,30.365614 98.953514,29.652161 
	C97.068565,28.302828 95.213318,27.326456 93.127396,26.325455 
	C92.537422,26.022896 92.178116,25.744967 91.699738,25.140663 
	C91.162872,24.660473 90.745079,24.506659 90.208664,24.395714 
	C90.090042,24.438587 89.917351,24.254711 89.872101,23.862015 
	C88.973373,23.142269 88.119904,22.815220 87.021530,22.485212 
	C86.442986,22.155088 86.109337,21.827923 85.961182,21.185562 
	C87.371628,19.885220 88.596581,18.900074 89.805550,17.927790 
	C84.546318,10.773499 83.015160,10.538366 78.606941,16.042244 
	C77.977180,16.165846 77.729149,16.233809 77.215347,16.298820 
	C76.641411,16.127914 76.333237,15.959961 76.038849,15.497609 
	C76.031029,14.810854 76.009430,14.418497 75.948166,13.667974 
	C73.715996,8.078064 79.928436,11.339251 80.682999,8.117142 
	C77.163963,6.972436 72.892136,6.064284 73.000000,1.000000 
z"/>
<path fill="#D9DADC" opacity="1.000000" stroke="none" 
	d="
M33.219997,80.012123 
	C29.658560,79.017761 26.456867,78.890419 25.075121,83.312004 
	C24.988585,83.588921 24.661795,83.920219 24.387152,83.989372 
	C20.593100,84.944572 16.219015,87.479088 13.123926,86.391449 
	C8.788321,84.867867 5.520824,86.755882 1.396404,86.998672 
	C1.000000,77.312439 1.000000,67.624878 1.380939,57.478233 
	C5.262689,58.396957 7.999887,57.795307 10.260357,54.469669 
	C11.068025,53.281418 12.939333,52.601711 14.461634,52.155376 
	C18.422123,50.994164 22.458258,50.090954 26.037663,49.191944 
	C28.313971,51.362419 30.750181,53.685356 33.310062,56.463211 
	C33.362492,64.616127 33.291245,72.314125 33.219997,80.012123 
z"/>
<path fill="#DDDEE1" opacity="1.000000" stroke="none" 
	d="
M33.186390,56.008297 
	C30.750181,53.685356 28.313971,51.362419 26.037663,49.191944 
	C22.458258,50.090954 18.422123,50.994164 14.461634,52.155376 
	C12.939333,52.601711 11.068025,53.281418 10.260357,54.469669 
	C7.999887,57.795307 5.262689,58.396957 1.380939,57.009575 
	C1.000000,46.312439 1.000000,35.624878 1.000000,24.468658 
	C5.880605,22.340899 9.687549,24.109097 13.809716,26.892477 
	C16.572334,28.757864 19.898928,29.879074 24.156996,27.102980 
	C28.706913,24.136612 34.465904,20.276955 40.916191,25.350571 
	C40.456120,26.523174 39.822826,27.385553 38.973267,27.769960 
	C34.406647,29.836241 33.073330,33.298504 33.357040,38.188618 
	C33.700302,44.105297 33.277611,50.066410 33.186390,56.008297 
z"/>
<path fill="#E6E7EB" opacity="1.000000" stroke="none" 
	d="
M130.000000,37.531342 
	C128.178192,37.969215 126.306839,38.180157 124.552452,37.820492 
	C123.430519,37.590488 121.522362,36.376034 121.600800,35.843716 
	C122.555382,29.365461 117.325539,29.532888 113.594803,27.946424 
	C112.271057,27.383511 111.191986,26.210970 110.052277,25.255817 
	C106.405701,22.199738 103.180939,18.259127 99.019501,16.324715 
	C95.943161,14.894705 95.578873,14.222274 95.506081,10.937887 
	C95.437119,7.826360 92.670525,4.774619 91.045151,1.348292 
	C103.924706,1.000000 116.849403,1.000000 130.000000,1.000000 
	C130.000000,13.019952 130.000000,25.041317 130.000000,37.531342 
z"/>
<path fill="#E0E2E2" opacity="1.000000" stroke="none" 
	d="
M103.004326,40.003948 
	C104.304070,41.486679 106.540199,42.869476 106.711296,44.472664 
	C107.083153,47.957024 109.123642,48.880955 111.806328,50.201672 
	C117.784515,53.144810 123.490746,56.640358 129.653900,59.955399 
	C130.000000,67.020950 130.000000,74.041893 129.644318,81.486664 
	C127.141777,80.691078 124.333649,79.972786 122.963539,78.164780 
	C117.292282,70.680923 110.414139,67.204857 100.924423,69.638489 
	C100.856964,68.521393 100.913193,67.766022 101.252914,66.725647 
	C101.707062,63.944965 101.877716,61.449291 102.316551,58.644547 
	C102.724602,52.224972 102.864464,46.114460 103.004326,40.003948 
z"/>
<path fill="#DDDEDE" opacity="1.000000" stroke="none" 
	d="
M101.048111,70.000214 
	C110.414139,67.204857 117.292282,70.680923 122.963539,78.164780 
	C124.333649,79.972786 127.141777,80.691078 129.644318,81.955238 
	C130.000000,87.688042 130.000000,93.376083 130.000000,99.532059 
	C123.838844,98.746704 117.423141,97.858482 115.807419,90.091721 
	C115.774414,89.933098 115.738495,89.723778 115.627235,89.640144 
	C111.347649,86.423225 107.059082,83.218239 102.395828,79.571732 
	C101.666641,76.749313 101.313347,74.366837 100.868896,71.653946 
	C100.867874,70.882439 100.957993,70.441322 101.048111,70.000214 
z"/>
<path fill="#E2E3E7" opacity="1.000000" stroke="none" 
	d="
M72.531342,1.000000 
	C72.892136,6.064284 77.163963,6.972436 80.682999,8.117142 
	C79.928436,11.339251 73.715996,8.078064 75.610634,13.704845 
	C74.487755,15.060368 73.662727,16.020849 72.465546,16.989258 
	C70.513321,17.161900 68.933250,17.326618 67.175377,17.509871 
	C66.309799,14.165764 65.528053,11.145514 64.942680,8.883982 
	C62.023506,9.863644 59.965797,10.152393 58.428539,11.202807 
	C57.288677,11.981676 56.824989,13.750113 56.047539,15.075462 
	C56.034973,15.073183 56.071903,15.089949 56.071903,15.089949 
	C52.858559,9.617825 46.813023,9.234905 41.692574,7.608459 
	C38.219418,6.505252 37.704365,4.741606 38.000050,1.421033 
	C49.354229,1.000000 60.708454,1.000000 72.531342,1.000000 
z"/>
<path fill="#D3D4D6" opacity="1.000000" stroke="none" 
	d="
M108.466118,160.000000 
	C106.415970,156.102112 107.736710,153.013931 111.218277,150.154236 
	C114.046951,151.097534 116.339340,152.265198 118.835297,153.333008 
	C119.038872,153.233154 118.641380,153.454269 118.777336,153.731796 
	C120.273682,155.036087 121.634064,156.062866 122.993401,157.453430 
	C122.994904,158.544815 122.997452,159.272400 123.000000,160.000000 
	C118.310745,160.000000 113.621490,160.000000 108.466118,160.000000 
z"/>
<path fill="#CCD0D4" opacity="1.000000" stroke="none" 
	d="
M123.497902,160.000000 
	C122.997452,159.272400 122.994904,158.544815 123.307373,157.339584 
	C124.267761,155.043076 124.913139,153.224182 125.893234,151.079697 
	C126.491531,144.840759 126.755104,138.927414 127.018661,133.014084 
	C127.764000,133.010544 128.509338,133.007019 129.627335,133.001740 
	C130.000000,142.000076 130.000000,151.000168 130.000000,160.000000 
	C127.936600,160.000000 125.966202,160.000000 123.497902,160.000000 
z"/>
<path fill="#214A7C" opacity="1.000000" stroke="none" 
	d="
M33.310062,56.463211 
	C33.277611,50.066410 33.700302,44.105297 33.357040,38.188618 
	C33.073330,33.298504 34.406647,29.836241 38.973267,27.769960 
	C39.822826,27.385553 40.456120,26.523174 41.274071,25.530054 
	C45.716858,22.582766 50.074791,19.986809 55.138367,17.252924 
	C60.286175,16.619164 59.003464,19.993301 59.011112,22.120041 
	C59.129414,55.021111 59.114754,87.922745 59.287754,120.823418 
	C59.305450,124.189308 58.895039,126.988022 55.724571,129.179504 
	C52.628906,131.209000 49.820072,133.062332 46.704376,134.879395 
	C45.974884,135.250397 45.552265,135.657669 45.092896,136.052155 
	C45.056141,136.039383 45.052505,136.117111 44.742390,136.122223 
	C43.838329,136.630615 43.244381,137.133896 42.612621,137.635101 
	C42.574810,137.633011 42.505959,137.664566 42.505959,137.664566 
	C33.831387,142.784546 25.156956,147.904785 16.482130,153.024323 
	C14.674699,154.091003 12.865803,155.155197 9.744534,156.994141 
	C9.744534,151.495514 10.401268,147.033600 9.620255,142.839432 
	C7.360921,130.706421 12.222358,123.045845 23.338640,118.686806 
	C24.543772,118.214233 25.574583,117.297119 26.841705,116.285828 
	C27.552816,115.804428 28.108473,115.623390 29.147964,115.161812 
	C30.266487,114.320229 30.901175,113.759193 31.535864,113.198158 
	C31.535864,113.198158 31.842182,113.210304 32.283783,112.964554 
	C32.911945,109.775803 33.098507,106.832802 33.285065,103.889809 
	C33.343510,96.234062 33.401958,88.578323 33.340202,80.467346 
	C33.291245,72.314125 33.362492,64.616127 33.310062,56.463211 
z"/>
<path fill="#1B4578" opacity="1.000000" stroke="none" 
	d="
M101.916016,113.173698 
	C101.916016,113.173698 101.993645,113.533875 102.062492,114.070686 
	C103.129799,115.047188 104.128258,115.486877 105.422928,115.988724 
	C106.115219,116.097717 106.511299,116.144554 106.907379,116.191391 
	C106.907379,116.191391 106.983246,116.552048 107.028046,117.035675 
	C108.057426,117.962326 109.042000,118.405357 110.341492,118.926781 
	C111.081421,119.051323 111.506432,119.097466 111.931450,119.143616 
	C111.931450,119.143616 112.003174,119.500610 112.061531,120.063339 
	C113.594673,121.306519 115.069458,121.986969 116.803345,122.773529 
	C117.707085,123.252960 118.351707,123.626282 119.046021,124.358612 
	C120.398132,126.506721 122.722748,128.239624 122.824715,130.094696 
	C123.248795,137.809921 123.003006,145.561935 123.003006,153.454269 
	C121.205330,153.454269 119.923355,153.454269 118.641380,153.454269 
	C118.641380,153.454269 119.038872,153.233154 118.831726,152.970764 
	C115.528519,150.976700 112.432449,149.245056 109.336380,147.513397 
	C108.992531,147.571014 108.673149,147.506851 108.146721,146.815155 
	C104.472900,144.278763 101.030602,142.248077 97.422272,140.192596 
	C97.256233,140.167801 97.015808,139.933456 96.941040,139.591461 
	C96.081116,138.925247 95.295959,138.601028 94.356522,138.247452 
	C94.202232,138.218094 94.006210,137.972626 93.951897,137.633575 
	C87.620941,133.185318 81.344307,129.076096 74.991928,124.566315 
	C74.750648,123.102165 74.585106,122.038589 74.567123,120.537804 
	C74.637321,116.408279 74.559967,112.715950 74.622742,108.692169 
	C74.671509,107.899307 74.580147,107.437897 74.615395,106.659302 
	C74.660027,105.902397 74.578056,105.462677 74.655365,104.673172 
	C74.936684,103.565376 75.058731,102.807381 75.623016,102.040192 
	C77.553207,101.907967 79.041161,101.784927 80.788406,101.700638 
	C81.349228,101.912239 81.650764,102.085106 82.033478,102.541336 
	C82.608246,103.039536 83.101837,103.254372 83.624039,103.361252 
	C83.652641,103.253311 83.711914,103.037979 83.711914,103.037979 
	C84.491516,103.417274 85.271118,103.796570 86.578690,104.472336 
	C87.451057,105.087448 87.795464,105.406075 88.125412,106.029449 
	C88.756035,106.507935 89.401115,106.681671 90.384872,106.928032 
	C92.173080,107.658150 93.622620,108.315643 95.072159,108.973137 
	C95.072159,108.973137 95.078484,109.363373 95.091431,109.861282 
	C95.747330,110.531921 96.390282,110.704659 97.033226,110.877388 
	C97.388245,110.954971 97.743256,111.032562 98.529411,111.456238 
	C99.945702,112.259445 100.930862,112.716568 101.916016,113.173698 
z"/>
<path fill="#D3D5D6" opacity="1.000000" stroke="none" 
	d="
M74.496086,105.022964 
	C74.578056,105.462677 74.660027,105.902397 74.329620,106.676949 
	C73.437263,107.352875 72.957298,107.693970 72.477341,108.035065 
	C73.145767,108.364586 73.814186,108.694107 74.482613,109.023628 
	C74.559967,112.715950 74.637321,116.408279 74.233307,120.574120 
	C70.973602,123.077995 70.708694,124.795021 74.581680,126.264969 
	C75.229721,127.232613 75.668175,127.957634 76.135040,128.867172 
	C76.440208,129.054718 76.716965,129.057739 77.331497,129.123962 
	C82.447525,132.136124 87.225784,135.085098 92.084404,138.178940 
	C92.164764,138.323807 92.594597,138.466339 92.594597,138.466339 
	C92.594597,138.466339 92.970871,138.180573 93.232506,138.142517 
	C93.664833,138.060516 93.835518,138.016571 94.006210,137.972626 
	C94.006210,137.972626 94.202232,138.218094 94.484573,138.548920 
	C95.516556,139.230988 96.266182,139.582214 97.015808,139.933456 
	C97.015808,139.933456 97.256233,140.167801 97.385727,140.389908 
	C97.515221,140.612015 97.461197,141.010345 97.461197,141.010345 
	C93.344437,143.746078 87.536537,142.685089 83.614143,141.101105 
	C79.410461,139.403534 74.364853,139.745346 69.676201,139.309937 
	C66.491051,139.014175 63.207634,138.401489 60.118095,138.886200 
	C57.645355,139.274139 55.398426,141.101486 53.351177,142.138153 
	C49.974949,140.851486 46.549286,139.545990 42.814789,137.952515 
	C42.505959,137.664566 42.574810,137.633011 42.948029,137.711670 
	C43.898331,137.232574 44.475414,136.674835 45.052502,136.117111 
	C45.052505,136.117111 45.056141,136.039383 45.380306,136.006805 
	C46.140060,135.621368 46.575649,135.268524 47.011242,134.915680 
	C49.820072,133.062332 52.628906,131.209000 56.118370,129.184296 
	C60.214909,128.704819 61.121536,126.646263 60.993378,123.497131 
	C60.824207,119.340317 60.962940,115.170982 60.969307,111.007027 
	C64.647392,110.451065 65.156403,107.837189 65.340729,104.328072 
	C66.116570,102.911293 66.555695,101.960251 66.994812,101.009209 
	C68.443893,100.983109 69.892967,100.957008 71.673080,101.331543 
	C72.834763,102.829109 73.665428,103.926033 74.496086,105.022964 
z"/>
<path fill="#405E83" opacity="1.000000" stroke="none" 
	d="
M97.777740,141.194107 
	C97.461197,141.010345 97.515221,140.612015 97.551758,140.414703 
	C101.030602,142.248077 104.472900,144.278763 107.963058,146.647781 
	C104.705368,145.116699 101.399826,143.247284 97.777740,141.194107 
z"/>
<path fill="#405E83" opacity="1.000000" stroke="none" 
	d="
M109.483673,147.759705 
	C112.432449,149.245056 115.528519,150.976700 118.628159,153.070618 
	C116.339340,152.265198 114.046951,151.097534 111.405121,149.855988 
	C110.580780,149.190079 110.105873,148.598038 109.483673,147.759705 
z"/>
<path fill="#244C7D" opacity="1.000000" stroke="none" 
	d="
M100.924423,69.638489 
	C100.957993,70.441322 100.867874,70.882439 100.671677,71.978317 
	C100.723671,77.419373 100.881721,82.205658 101.039772,86.991943 
	C100.977203,87.751129 100.914627,88.510323 100.822495,90.049728 
	C100.818748,92.543709 100.844566,94.257469 100.870384,95.971222 
	C100.870384,95.971222 100.955994,95.941673 100.571350,95.905884 
	C98.550278,95.172256 96.867905,94.564575 95.286575,93.758629 
	C91.503868,91.830704 87.768738,89.809433 84.014397,87.825851 
	C84.014397,87.825851 83.861786,87.658211 83.620773,87.360703 
	C82.762321,86.526558 82.231354,85.757294 81.513611,85.490524 
	C76.321106,83.560638 74.581879,80.107208 74.714790,74.430229 
	C75.135437,56.464378 74.895798,38.483528 75.000290,20.508993 
	C75.009445,18.934731 75.668098,17.364246 76.025070,15.792007 
	C76.333237,15.959961 76.641411,16.127914 77.374039,16.549904 
	C78.163864,16.931829 78.529213,17.059721 79.030411,17.398796 
	C79.613152,17.819445 80.060036,18.028913 80.649536,18.528740 
	C81.552299,19.143044 82.312462,19.466984 83.245422,20.075567 
	C84.204048,20.740393 84.989868,21.120575 85.775688,21.500757 
	C86.109337,21.827923 86.442986,22.155088 87.202301,22.765480 
	C88.391090,23.450706 89.154221,23.852709 89.917351,24.254711 
	C89.917351,24.254711 90.090042,24.438587 90.368011,24.685120 
	C91.036919,25.110115 91.427872,25.288576 91.818817,25.467037 
	C92.178116,25.744967 92.537422,26.022896 93.290215,26.629845 
	C95.450211,27.980949 97.216721,29.003035 98.983223,30.025120 
	C99.067101,30.365614 99.257828,30.628613 99.778572,31.372902 
	C100.115265,36.061005 100.228462,40.190334 100.342430,44.319637 
	C100.551186,51.883312 100.760399,59.446976 100.969421,67.010643 
	C100.913193,67.766022 100.856964,68.521393 100.924423,69.638489 
z"/>
<path fill="#A0B1C5" opacity="1.000000" stroke="none" 
	d="
M60.958405,110.537804 
	C60.962940,115.170982 60.824207,119.340317 60.993378,123.497131 
	C61.121536,126.646263 60.214909,128.704819 56.405205,129.008133 
	C58.895039,126.988022 59.305450,124.189308 59.287754,120.823418 
	C59.114754,87.922745 59.129414,55.021111 59.011112,22.120041 
	C59.003464,19.993301 60.286175,16.619164 55.419220,17.049854 
	C55.269657,16.514969 55.544876,16.045221 55.945999,15.332712 
	C56.071903,15.089949 56.034973,15.073183 56.442951,15.074129 
	C62.170372,14.610400 61.195793,18.748419 61.220963,21.568064 
	C61.305576,31.047331 61.056580,40.529575 60.920204,50.476166 
	C60.915508,55.964214 60.925850,60.986778 60.919415,66.466667 
	C60.913364,70.285652 60.924088,73.647316 60.934807,77.008972 
	C60.928875,78.063164 60.922947,79.117348 60.922600,81.009125 
	C60.945507,83.904648 60.962826,85.962585 60.980148,88.020523 
	C60.969265,95.369873 60.958382,102.719231 60.958405,110.537804 
z"/>
<path fill="#DBDDDF" opacity="1.000000" stroke="none" 
	d="
M61.336021,77.007782 
	C60.924088,73.647316 60.913364,70.285652 61.302460,66.406090 
	C62.468433,64.614403 63.549583,63.429497 63.938953,62.049416 
	C64.924622,58.555836 65.599625,54.974606 66.350113,51.645592 
	C68.907288,53.320152 70.955444,54.661385 73.005074,56.470062 
	C73.002975,62.294415 72.999405,67.651329 72.995834,73.008240 
	C71.939461,73.304100 70.155014,73.340927 69.942879,73.937164 
	C68.366531,78.367691 65.108803,77.725197 61.336021,77.007782 
z"/>
<path fill="#CCD1D8" opacity="1.000000" stroke="none" 
	d="
M72.998550,73.447983 
	C72.999405,67.651329 73.002975,62.294415 73.006783,56.041401 
	C73.006500,53.431030 73.005981,51.716759 73.007416,49.533691 
	C73.009804,41.053173 73.010231,33.041458 73.153427,24.933901 
	C73.196915,24.583546 73.097633,24.329031 72.952255,23.780575 
	C72.881393,23.289829 72.856621,23.093025 72.865616,22.547955 
	C72.878990,21.501007 72.858597,20.802330 72.864792,19.713804 
	C72.873482,18.543081 72.855591,17.762207 72.837700,16.981331 
	C73.662727,16.020849 74.487755,15.060368 75.650299,14.063013 
	C76.009430,14.418497 76.031029,14.810854 76.038849,15.497610 
	C75.668098,17.364246 75.009445,18.934731 75.000290,20.508993 
	C74.895798,38.483528 75.135437,56.464378 74.714790,74.430229 
	C74.581879,80.107208 76.321106,83.560638 81.513611,85.490524 
	C82.231354,85.757294 82.762321,86.526558 83.515488,87.402687 
	C73.904533,87.265526 72.337708,81.863792 72.998550,73.447983 
z"/>
<path fill="#405E83" opacity="1.000000" stroke="none" 
	d="
M118.777336,153.731796 
	C119.923355,153.454269 121.205330,153.454269 123.003006,153.454269 
	C123.003006,145.561935 123.248795,137.809921 122.824715,130.094696 
	C122.722748,128.239624 120.398132,126.506721 119.377655,124.375610 
	C121.338638,125.052567 123.017670,126.071541 124.720993,127.456566 
	C124.863403,128.544922 124.981529,129.267227 125.099648,129.989532 
	C125.038696,130.439987 124.977753,130.890457 124.907623,132.130859 
	C125.118469,139.082321 125.338493,145.243805 125.558510,151.405304 
	C124.913139,153.224182 124.267761,155.043076 123.308426,156.975800 
	C121.634064,156.062866 120.273682,155.036087 118.777336,153.731796 
z"/>
<path fill="#CCD0D4" opacity="1.000000" stroke="none" 
	d="
M124.696709,127.090515 
	C123.017670,126.071541 121.338638,125.052567 119.327965,124.016594 
	C118.351707,123.626282 117.707085,123.252960 116.707153,122.539764 
	C116.095940,121.771866 115.840027,121.343826 115.584106,120.915794 
	C117.289581,120.083633 119.390701,118.174652 120.623940,118.627769 
	C123.898491,119.830902 127.745956,121.285599 126.611313,126.595215 
	C125.718239,127.034660 125.207474,127.062584 124.696709,127.090515 
z"/>
<path fill="#CCD1D8" opacity="1.000000" stroke="none" 
	d="
M84.052948,88.209091 
	C87.768738,89.809433 91.503868,91.830704 95.286575,93.758629 
	C96.867905,94.564575 98.550278,95.172256 100.550926,95.865463 
	C100.521988,96.490776 100.222694,97.567039 99.719322,97.672913 
	C97.610252,98.116463 85.230232,90.775604 84.052948,88.209091 
z"/>
<path fill="#CCD1D8" opacity="1.000000" stroke="none" 
	d="
M88.139870,105.724701 
	C87.795464,105.406075 87.451057,105.087448 87.004623,104.555862 
	C87.459106,103.302681 87.981285,101.412300 88.578850,101.388161 
	C90.118889,101.325943 92.282715,101.609619 93.115433,102.634308 
	C94.398079,104.212669 94.777184,106.525299 95.305878,108.749786 
	C93.622620,108.315643 92.173080,107.658150 90.233116,106.676216 
	C89.208420,106.142746 88.674141,105.933723 88.139870,105.724701 
z"/>
<path fill="#D7DDE3" opacity="1.000000" stroke="none" 
	d="
M125.893234,151.079697 
	C125.338493,145.243805 125.118469,139.082321 124.997772,132.462830 
	C125.623154,132.189117 126.149216,132.373413 126.846970,132.785889 
	C126.755104,138.927414 126.491531,144.840759 125.893234,151.079697 
z"/>
<path fill="#CCD1D8" opacity="1.000000" stroke="none" 
	d="
M101.305290,86.705688 
	C100.881721,82.205658 100.723671,77.419373 100.762833,72.308716 
	C101.313347,74.366837 101.666641,76.749313 102.028862,79.560493 
	C101.882126,82.132599 101.726463,84.276016 101.305290,86.705688 
z"/>
<path fill="#CCD1D8" opacity="1.000000" stroke="none" 
	d="
M74.655365,104.673172 
	C73.665428,103.926033 72.834763,102.829109 72.002510,101.369949 
	C72.708817,100.215500 73.416718,99.423279 74.451180,99.172577 
	C74.912086,100.492516 75.046432,101.270950 75.180779,102.049377 
	C75.058731,102.807381 74.936684,103.565376 74.655365,104.673172 
z"/>
<path fill="#CCD1D8" opacity="1.000000" stroke="none" 
	d="
M81.952301,102.257973 
	C81.650764,102.085106 81.349228,101.912239 80.622452,101.441925 
	C79.450584,100.481712 78.703957,99.818954 77.957329,99.156204 
	C80.030151,96.686485 81.397614,97.233894 82.740082,101.604721 
	C82.300240,102.107483 82.126274,102.182724 81.952301,102.257973 
z"/>
<path fill="#CCD1D8" opacity="1.000000" stroke="none" 
	d="
M66.705299,100.856735 
	C66.555695,101.960251 66.116570,102.911293 65.342995,103.929031 
	C64.240700,102.722076 63.472847,101.448425 62.704998,100.174782 
	C63.041927,99.895058 63.378860,99.615341 63.715790,99.335625 
	C64.615791,99.791840 65.515785,100.248055 66.705299,100.856735 
z"/>
<path fill="#405E83" opacity="1.000000" stroke="none" 
	d="
M77.545197,99.081299 
	C78.703957,99.818954 79.450584,100.481712 80.363159,101.403183 
	C79.041161,101.784927 77.553207,101.907967 75.623016,102.040192 
	C75.046432,101.270950 74.912086,100.492516 74.710892,99.321777 
	C75.473724,98.955101 76.303391,98.980751 77.545197,99.081299 
z"/>
<path fill="#405E83" opacity="1.000000" stroke="none" 
	d="
M115.234818,120.794823 
	C115.840027,121.343826 116.095940,121.771866 116.448044,122.433655 
	C115.069458,121.986969 113.594673,121.306519 112.097260,120.241875 
	C113.011597,120.129738 113.948563,120.401794 115.234818,120.794823 
z"/>
<path fill="#DCDFE1" opacity="1.000000" stroke="none" 
	d="
M61.244648,87.746277 
	C60.962826,85.962585 60.945507,83.904648 60.942230,81.404037 
	C61.140568,83.131584 61.324856,85.301804 61.244648,87.746277 
z"/>
<path fill="#D7DDE3" opacity="1.000000" stroke="none" 
	d="
M124.720993,127.456573 
	C125.207474,127.062584 125.718239,127.034660 126.612061,126.996506 
	C126.581757,127.939644 126.168388,128.893021 125.427338,129.917969 
	C124.981529,129.267227 124.863403,128.544922 124.720993,127.456573 
z"/>
<path fill="#405E83" opacity="1.000000" stroke="none" 
	d="
M110.026573,118.848381 
	C109.042000,118.405357 108.057426,117.962326 107.062241,117.216751 
	C107.442818,116.944687 107.834000,116.975182 108.651886,117.292625 
	C109.394585,118.002510 109.710579,118.425446 110.026573,118.848381 
z"/>
<path fill="#CCD1D8" opacity="1.000000" stroke="none" 
	d="
M68.511932,87.238998 
	C68.506874,86.546455 68.698746,86.054649 68.890625,85.562843 
	C69.184639,85.831932 69.478645,86.101028 69.772659,86.370117 
	C69.418060,86.726654 69.063469,87.083199 68.511932,87.238998 
z"/>
<path fill="#CCD1D8" opacity="1.000000" stroke="none" 
	d="
M101.160919,95.742668 
	C100.844566,94.257469 100.818748,92.543709 100.923523,90.420471 
	C101.186562,91.845360 101.319008,93.679741 101.160919,95.742668 
z"/>
<path fill="#B1BECE" opacity="1.000000" stroke="none" 
	d="
M106.878777,115.827896 
	C106.511299,116.144554 106.115219,116.097717 105.300713,115.733734 
	C104.536667,114.975555 104.191048,114.534538 103.845428,114.093513 
	C104.847015,114.550476 105.848595,115.007439 106.878777,115.827896 
z"/>
<path fill="#405E83" opacity="1.000000" stroke="none" 
	d="
M103.548759,114.033585 
	C104.191048,114.534538 104.536667,114.975555 105.004501,115.671577 
	C104.128258,115.486877 103.129799,115.047188 102.094788,114.252052 
	C102.456192,113.922295 102.854141,113.947983 103.548759,114.033585 
z"/>
<path fill="#B1BECE" opacity="1.000000" stroke="none" 
	d="
M110.341492,118.926781 
	C109.710579,118.425446 109.394585,118.002510 108.945786,117.346329 
	C109.828461,117.548866 110.843933,117.984642 111.895432,118.782013 
	C111.506432,119.097466 111.081421,119.051323 110.341492,118.926781 
z"/>
<path fill="#B1BECE" opacity="1.000000" stroke="none" 
	d="
M101.877563,112.799110 
	C100.930862,112.716568 99.945702,112.259445 98.798965,111.507935 
	C99.704636,111.617203 100.771873,112.020859 101.877563,112.799110 
z"/>
<path fill="#405E83" opacity="1.000000" stroke="none" 
	d="
M96.894531,110.613556 
	C96.390282,110.704659 95.747330,110.531921 95.119156,110.054443 
	C95.674561,109.949707 96.215202,110.149719 96.894531,110.613556 
z"/>
<path fill="#405E83" opacity="1.000000" stroke="none" 
	d="
M82.033478,102.541336 
	C82.126274,102.182724 82.300240,102.107483 82.750702,101.965698 
	C83.143959,102.110054 83.260727,102.320961 83.580460,102.942070 
	C83.783432,103.352280 83.595436,103.469200 83.595436,103.469200 
	C83.101837,103.254372 82.608246,103.039536 82.033478,102.541336 
z"/>
<path fill="#CCD1D8" opacity="1.000000" stroke="none" 
	d="
M83.624039,103.361252 
	C83.595436,103.469200 83.783432,103.352280 83.784256,103.240776 
	C83.785080,103.129272 83.715233,103.099182 83.713577,103.068581 
	C83.711914,103.037979 83.652641,103.253311 83.624039,103.361252 
z"/>
<path fill="#CBCDD0" opacity="1.000000" stroke="none" 
	d="
M32.963814,104.160202 
	C33.098507,106.832802 32.911945,109.775803 32.361004,112.832138 
	C32.211933,110.107193 32.427250,107.268890 32.963814,104.160202 
z"/>
<path fill="#CBCDD0" opacity="1.000000" stroke="none" 
	d="
M31.174015,113.170532 
	C30.901175,113.759193 30.266487,114.320229 29.308334,114.909988 
	C29.593969,114.340103 30.203070,113.741508 31.174015,113.170532 
z"/>
<path fill="#CCD1D8" opacity="1.000000" stroke="none" 
	d="
M101.252914,66.725647 
	C100.760399,59.446976 100.551186,51.883312 100.342430,44.319637 
	C100.228462,40.190334 100.115265,36.061005 100.010666,31.462185 
	C100.554459,31.167871 101.089302,31.343058 101.800644,32.217125 
	C102.000877,41.595207 102.024620,50.274410 102.048370,58.953613 
	C101.877716,61.449291 101.707062,63.944965 101.252914,66.725647 
z"/>
<path fill="#E2E3E7" opacity="1.000000" stroke="none" 
	d="
M85.961182,21.185562 
	C84.989868,21.120575 84.204048,20.740393 83.150276,19.745708 
	C82.090523,18.833599 81.298729,18.535988 80.506927,18.238380 
	C80.060036,18.028913 79.613152,17.819445 79.068047,17.099640 
	C78.976120,16.388403 78.982399,16.187502 78.988670,15.986602 
	C83.015160,10.538366 84.546318,10.773499 89.805550,17.927790 
	C88.596581,18.900074 87.371628,19.885220 85.961182,21.185562 
z"/>
<path fill="#E4E9F1" opacity="1.000000" stroke="none" 
	d="
M102.316551,58.644547 
	C102.024620,50.274410 102.000877,41.595207 101.980698,32.444019 
	C102.323128,34.362991 102.661995,36.753948 103.002594,39.574429 
	C102.864464,46.114460 102.724602,52.224972 102.316551,58.644547 
z"/>
<path fill="#CCD1D8" opacity="1.000000" stroke="none" 
	d="
M98.953514,29.652161 
	C97.216721,29.003035 95.450211,27.980949 93.520889,26.654472 
	C95.213318,27.326456 97.068565,28.302828 98.953514,29.652161 
z"/>
<path fill="#CCD1D8" opacity="1.000000" stroke="none" 
	d="
M89.872101,23.862015 
	C89.154221,23.852709 88.391090,23.450706 87.447189,22.768436 
	C88.119904,22.815220 88.973373,23.142269 89.872101,23.862015 
z"/>
<path fill="#CCD1D8" opacity="1.000000" stroke="none" 
	d="
M91.699738,25.140663 
	C91.427872,25.288576 91.036919,25.110115 90.486633,24.642248 
	C90.745079,24.506659 91.162872,24.660473 91.699738,25.140663 
z"/>
<path fill="#CCD1D8" opacity="1.000000" stroke="none" 
	d="
M78.606941,16.042244 
	C78.982399,16.187502 78.976120,16.388403 78.932205,16.888458 
	C78.529213,17.059721 78.163864,16.931829 77.639809,16.552855 
	C77.729149,16.233809 77.977180,16.165846 78.606941,16.042244 
z"/>
<path fill="#E0E1E4" opacity="1.000000" stroke="none" 
	d="
M73.010666,25.029741 
	C73.010231,33.041458 73.009804,41.053173 72.619537,49.514915 
	C71.272636,47.456566 70.028282,45.014709 69.428291,42.423645 
	C68.604134,38.864498 68.268051,35.192333 67.722832,31.568596 
	C66.021103,34.130322 65.485138,36.510670 65.070847,38.912006 
	C64.649811,41.352352 64.631454,43.903339 63.890549,46.232094 
	C63.436108,47.660458 61.955200,48.762241 60.935234,50.010677 
	C61.056580,40.529575 61.305576,31.047331 61.220963,21.568064 
	C61.195793,18.748419 62.170372,14.610400 56.455513,15.076408 
	C56.824989,13.750113 57.288677,11.981676 58.428539,11.202807 
	C59.965797,10.152393 62.023506,9.863644 64.942680,8.883982 
	C65.528053,11.145514 66.309799,14.165764 67.175377,17.509871 
	C68.933250,17.326618 70.513321,17.161900 72.465546,16.989256 
	C72.855591,17.762207 72.873482,18.543081 72.663162,19.897306 
	C72.567245,21.279179 72.699539,22.087700 72.831833,22.896221 
	C72.856621,23.093025 72.881393,23.289829 72.954620,24.018997 
	C73.003075,24.551361 73.010666,25.029741 73.010666,25.029741 
z"/>
<path fill="#CBCDD0" opacity="1.000000" stroke="none" 
	d="
M44.742386,136.122223 
	C44.475414,136.674835 43.898331,137.232574 42.985840,137.713745 
	C43.244381,137.133896 43.838329,136.630615 44.742386,136.122223 
z"/>
<path fill="#CBCDD0" opacity="1.000000" stroke="none" 
	d="
M46.704376,134.879395 
	C46.575649,135.268524 46.140060,135.621368 45.417061,136.019562 
	C45.552265,135.657669 45.974884,135.250397 46.704376,134.879395 
z"/>
<path fill="#405E83" opacity="1.000000" stroke="none" 
	d="
M92.004044,138.034073 
	C87.225784,135.085098 82.447525,132.136124 77.121422,129.001938 
	C76.573578,128.816727 76.106628,128.682648 76.106628,128.682648 
	C75.668175,127.957634 75.229721,127.232613 74.748291,125.995972 
	C74.826096,125.311852 74.946884,125.139366 75.067665,124.966888 
	C81.344307,129.076096 87.620941,133.185318 93.951897,137.633575 
	C93.835518,138.016571 93.664833,138.060516 93.004623,138.014908 
	C92.344749,137.961609 92.174393,137.997849 92.004044,138.034073 
z"/>
<path fill="#CCD1D8" opacity="1.000000" stroke="none" 
	d="
M74.991928,124.566315 
	C74.946884,125.139366 74.826096,125.311852 74.538704,125.753334 
	C70.708694,124.795021 70.973602,123.077995 74.085754,121.011322 
	C74.585106,122.038589 74.750648,123.102165 74.991928,124.566315 
z"/>
<path fill="#CCD1D8" opacity="1.000000" stroke="none" 
	d="
M74.622742,108.692169 
	C73.814186,108.694107 73.145767,108.364586 72.477341,108.035065 
	C72.957298,107.693970 73.437263,107.352875 74.203003,106.994141 
	C74.580147,107.437897 74.671509,107.899307 74.622742,108.692169 
z"/>
<path fill="#405E83" opacity="1.000000" stroke="none" 
	d="
M96.941040,139.591461 
	C96.266182,139.582214 95.516556,139.230988 94.638870,138.578278 
	C95.295959,138.601028 96.081116,138.925247 96.941040,139.591461 
z"/>
<path fill="#405E83" opacity="1.000000" stroke="none" 
	d="
M88.125412,106.029449 
	C88.674141,105.933723 89.208420,106.142746 89.894440,106.603592 
	C89.401115,106.681671 88.756035,106.507935 88.125412,106.029449 
z"/>
<path fill="#CCD1D8" opacity="1.000000" stroke="none" 
	d="
M76.135040,128.867172 
	C76.106628,128.682648 76.573578,128.816727 76.783653,128.938751 
	C76.716965,129.057739 76.440208,129.054718 76.135040,128.867172 
z"/>
<path fill="#CBCDD0" opacity="1.000000" stroke="none" 
	d="
M92.084404,138.178940 
	C92.174393,137.997849 92.344749,137.961609 92.742996,138.052963 
	C92.970871,138.180573 92.594597,138.466339 92.594597,138.466339 
	C92.594597,138.466339 92.164764,138.323807 92.084404,138.178940 
z"/>
<path fill="#CCD1D8" opacity="1.000000" stroke="none" 
	d="
M80.649536,18.528740 
	C81.298729,18.535988 82.090523,18.833599 82.977478,19.461067 
	C82.312462,19.466984 81.552299,19.143044 80.649536,18.528740 
z"/>
<path fill="#DCDFE1" opacity="1.000000" stroke="none" 
	d="
M60.920204,50.476166 
	C61.955200,48.762241 63.436108,47.660458 63.890549,46.232094 
	C64.631454,43.903339 64.649811,41.352352 65.070847,38.912006 
	C65.485138,36.510670 66.021103,34.130322 67.722832,31.568596 
	C68.268051,35.192333 68.604134,38.864498 69.428291,42.423645 
	C70.028282,45.014709 71.272636,47.456566 72.617584,49.983719 
	C73.005981,51.716759 73.006500,53.431030 73.005310,55.573959 
	C70.955444,54.661385 68.907288,53.320152 66.350113,51.645592 
	C65.599625,54.974606 64.924622,58.555836 63.938953,62.049416 
	C63.549583,63.429497 62.468433,64.614403 61.319233,65.948761 
	C60.925850,60.986778 60.915508,55.964214 60.920204,50.476166 
z"/>
<path fill="#E2E3E7" opacity="1.000000" stroke="none" 
	d="
M72.865608,22.547955 
	C72.699539,22.087700 72.567245,21.279179 72.636581,20.287153 
	C72.858597,20.802330 72.878990,21.501007 72.865608,22.547955 
z"/>
<path fill="#E2E3E7" opacity="1.000000" stroke="none" 
	d="
M73.153427,24.933901 
	C73.010666,25.029741 73.003075,24.551361 73.000717,24.312939 
	C73.097633,24.329031 73.196915,24.583546 73.153427,24.933901 
z"/>
</svg>